# AST/ASF file generated using VICON BodyLanguage
# -----------------------------------------------
:version 1.10
:name VICON
:units
  mass 1.0
  length 0.45
  angle deg
:documentation
   .ast/.asf automatically generated from VICON data using
   VICON BodyBuilder and BodyLanguage model FoxedUp or BRILLIANT.MOD
:root
   order TX TY TZ RX RY RZ
   axis XYZ
   position 0 0 0  
   orientation 0 -0 0 
:bonedata
  begin
     id 1 
     name lhipjoint
     direction 0.432694 -0.693742 0.575759 
     length 2.19277 
     axis 0 -0 0  XYZ
  end
  begin
     id 2 
     name lfemur
     direction 0.34202 -0.939693 0  
     length 6.69022  
     axis 0 -0 20  XYZ
    dof rx ry rz
    limits (-160.0 20.0)
           (-70.0 70.0)
           (-60.0 70.0)
  end
  begin
     id 3 
     name ltibia
     direction 0.34202 -0.939693 0   
     length 6.50337   
     axis 0 -0 20   XYZ
    dof rx
    limits (-10.0 170.0)
  end
  begin
     id 4 
     name lfoot
     direction 0.158999 -0.435969 0.885805   
     length 2.70564   
     axis -90 -1.13533e-015 20   XYZ
    dof rx rz
    limits (-45.0 90.0)
           (-70.0 20.0)
  end
  begin
     id 5 
     name ltoes
     direction -0.00592919 0.00964381 0.999936   
     length 1.29929   
     axis -90 -1.13533e-015 20   XYZ
    dof rx
    limits (-90.0 20.0)
  end
  begin
     id 6 
     name rhipjoint
     direction -0.414359 -0.700339 0.581234   
     length 2.17212  
     axis 0 -0 0  XYZ 
  end
  begin
     id 7 
     name rfemur
     direction -0.34202 -0.939693 0   
     length 7.17659   
     axis 0 -0 -20   XYZ
    dof rx ry rz
    limits (-160.0 20.0)
           (-70.0 70.0)
           (-70.0 60.0)
  end
  begin
     id 8 
     name rtibia
     direction -0.34202 -0.939693 0   
     length 6.36669   
     axis 0 -0 -20   XYZ
    dof rx
    limits (-10.0 170.0)
 end
 begin
     id 9 
     name rfoot
     direction -0.137064 -0.37658 0.916188   
     length 2.22351  
     axis -90 1.13533e-015 -20   XYZ
    dof rx rz
    limits (-45.0 90.0)
           (-20.0 70.0)
  end
  begin
     id 10 
     name rtoes
     direction -0.000784077 -0.00289101 0.999996   
     length 1.09522   
     axis -90 1.13533e-015 -20   XYZ
    dof rx
    limits (-90.0 20.0)
  end
  begin
     id 11 
     name lowerback
     direction -0.0176242 0.984912 -0.172157   
     length 1.65301   
     axis 0 -0 0   XYZ
    dof rx ry rz
    limits (-20.0 45.0)
           (-30.0 30.0)
           (-30.0 30.0)
  end
  begin
     id 12 
     name upperback
     direction -0.00218128 0.998776 -0.0494072   
     length 1.67776   
     axis 0 -0 0   XYZ
    dof rx ry rz
    limits (-20.0 45.0)
           (-30.0 30.0)
           (-30.0 30.0)
  end
  begin
     id 13 
     name thorax
     direction 0.00544186 0.999658 0.0255711   
     length 1.72293   
     axis 0 -0 0   XYZ
    dof rx ry rz
    limits (-20.0 45.0)
           (-30.0 30.0)
           (-30.0 30.0)
  end
  begin
     id 14 
     name lowerneck
     direction -0.105325 0.983841 0.144785   
     length 2.14226   
     axis 0 -0 0   XYZ
    dof rx ry rz
    limits (-20.0 45.0)
           (-30.0 30.0)
           (-30.0 30.0)
  end
  begin
     id 15 
     name upperneck
     direction 0.0547957 0.988053 -0.144041   
     length 2.17508   
     axis 0 -0 0   XYZ
    dof rx ry rz
    limits (-20.0 45.0)
           (-30.0 30.0)
           (-30.0 30.0)
  end
  begin
     id 16
     name head
     direction 0.0247488 0.997534 -0.0656813  
     length 2.20048  
     axis 0 -0 0   XYZ
    dof rx ry rz
    limits (-20.0 45.0)
           (-30.0 30.0)
           (-30.0 30.0)
  end
  begin
     id 17 
     name lclavicle
     direction 0.820559 0.567247 -0.0701026  
     length 4.09615  
     axis 0 -0 0   XYZ
    dof ry rz
    limits (-20.0 10.0)
           (0.0 20.0)
  end
  begin
     id 18 
     name lhumerus
     direction 0.999977 -0.0067566 -9.96392e-005   
     length 4.59333   
     axis -180 -30 -90   XYZ
    dof rx ry rz
    limits (-60.0 90.0)
           (-90.0 90.0)
           (-90.0 90.0)
  end
  begin
     id 19
     name lradius
     direction 1 -4.48982e-011 -2.53425e-027   
     length 2.81151   
     axis -180 -30 -90   XYZ
    dof rx
    limits (-10.0 170.0)
  end
  begin
     id 20
     name lwrist
     direction 1 -4.48939e-011 -7.39254e-028   
     length 1.40576   
     axis 2.56395e-016 90 90   XYZ
    dof ry
    limits (-180.0 0.0)
 end
  begin
     id 21 
     name lhand
     direction 1 -4.48939e-011 -1.47851e-027   
     length 0.895651   
     axis 9.43423e-016 90 90   XYZ
    dof rx rz
    limits (-90.0 90.0)
           (-45.0 45.0)
  end
  begin
     id 22 
     name lfingers
     direction 1 -4.48978e-011 -2.95702e-027   
     length 0.722097   
     axis 1.88685e-015 90 90   XYZ
    dof rx
    limits (0.0 90.0)
  end
  begin
     id 23
     name lthumb
     direction 0.707107 -6.34931e-011 0.707107   
     length 1.03679   
     axis -90 45 -9.86935e-015   XYZ
    dof rx rz
    limits (-45.0 45.0)
           (-45.0 45.0)
  end
  begin
     id 24 
     name rclavicle
     direction -0.831414 0.553102 -0.0531864   
     length 4.24872  
     axis 0 -0 0   XYZ 
    dof ry rz
    limits (-10.0 20.0)
           (-20.0 0.0)
  end
  begin
     id 25 
     name rhumerus
     direction -0.999916 -0.000939607 0.0129331  
     length 4.74834   
     axis -180 30 90   XYZ
    dof rx ry rz
    limits (-90.0 60.0)
           (-90.0 90.0)
           (-90.0 90.0)
  end
  begin
     id 26 
     name rradius
     direction -1 -4.48956e-011 -1.31752e-027   
     length 2.79907   
     axis -180 30 90   XYZ
    dof rx
    limits (-10.0 170.0)
  end
  begin
     id 27 
     name rwrist
     direction -1 -4.4897e-011 -7.39254e-028   
     length 1.39954   
     axis 2.56395e-016 -90 -90   XYZ
    dof ry
    limits (-180.0 0.0)
  end
  begin
     id 28
     name rhand
     direction -0.999997 -0.00250697 0.000800838   
     length 0.953304   
     axis 9.43423e-016 -90 -90   XYZ
    dof rx rz
    limits (-90.0 90.0)
           (-45.0 45.0)
  end
  begin
     id 29
     name rfingers
     direction -1 -4.48954e-011 -2.95702e-027   
     length 0.763342   
     axis 1.88685e-015 -90 -90   XYZ
    dof rx
    limits (0.0 90.0)
  end
  begin
     id 30
     name rthumb
     direction -0.709701 -0.00217037 0.7045   
     length 1.10115   
     axis -90 -45 9.86935e-015   XYZ
    dof rx rz
    limits (-45.0 45.0)
           (-45.0 45.0)
  end
:hierarchy
  begin
    root lhipjoint rhipjoint lowerback
    lhipjoint lfemur
    lfemur ltibia
    ltibia lfoot
    lfoot ltoes
    rhipjoint rfemur
    rfemur rtibia
    rtibia rfoot
    rfoot rtoes
    lowerback upperback
    upperback thorax
    thorax lowerneck lclavicle rclavicle
    lowerneck upperneck
    upperneck head
    lclavicle lhumerus
    lhumerus lradius
    lradius lwrist
    lwrist lhand lthumb
    lhand lfingers
    rclavicle rhumerus
    rhumerus rradius
    rradius rwrist
    rwrist rhand rthumb
    rhand rfingers
  end

#!OML:ASF G:\ViconDB\ViconDB\414\test\team2\shane.ASF
:FULLY-SPECIFIED
:DEGREES
111
root 2.93684 16.1524 -14.9364 -9.84861 8.63293 -7.58318
lowerback 5.34185 -2.91577 2.68066
upperback 4.33748 -3.82641 6.16518
thorax 1.75105 -1.94577 5.02967
lowerneck -15.7263 -4.37105 -7.2428
upperneck 25.4551 -5.98917 6.33765
head 11.2773 -2.64987 2.67779
rclavicle -2.03257e-014 -2.06736e-014
rhumerus -40.0976 -4.41613 -84.5608
rradius 33.6498
rwrist 30.0844
rhand -32.02 -17.433
rfingers 7.12502
rthumb -5.26803 -47.3475
lclavicle -2.03257e-014 -2.06736e-014
lhumerus -30.1384 -31.1179 101.681
lradius 28.6307
lwrist -7.41104
lhand -36.3852 7.21801
lfingers 7.12502
lthumb -9.48149 36.9847
rfemur -9.4833 -16.5953 27.8589
rtibia 47.2404
rfoot -27.6611 -4.29408
rtoes -2.7877
lfemur 1.56057 4.02911 4.72791
ltibia 70.0438
lfoot -10.3477 -20.1812
ltoes -11.8744
112
root 2.90848 16.1259 -14.7779 -10.1533 8.55443 -7.98589
lowerback 5.16011 -2.70975 3.05886
upperback 4.62128 -3.5682 6.13066
thorax 2.10507 -1.80558 4.75611
lowerneck -15.2639 -4.59088 -7.52864
upperneck 24.8045 -6.40745 7.0241
head 11.0113 -2.79632 2.91329
rclavicle 4.16951e-014 -8.0309e-014
rhumerus -38.8744 -2.75911 -85.5279
rradius 34.5003
rwrist 29.9389
rhand -32.1599 -18.0787
rfingers 7.12502
rthumb -5.40309 -47.9898
lclavicle 4.16951e-014 -8.0309e-014
lhumerus -30.9462 -32.3608 101.842
lradius 28.6955
lwrist -7.18682
lhand -36.7429 6.86287
lfingers 7.12502
lthumb -9.82659 36.6136
rfemur -8.53069 -16.5483 28.3144
rtibia 47.2172
rfoot -28.2702 -4.63158
rtoes -3.10684
lfemur -0.106398 4.3953 5.53513
ltibia 71.6349
lfoot -11.4216 -19.4218
ltoes -11.8755
113
root 2.88097 16.0963 -14.6221 -10.5424 8.62037 -8.26771
lowerback 5.01535 -2.55983 3.36834
upperback 4.97509 -3.38977 5.96392
thorax 2.51535 -1.70282 4.38794
lowerneck -14.9003 -4.8602 -7.76548
upperneck 24.1281 -6.92523 7.82139
head 10.7749 -2.97287 3.16338
rclavicle 3.26007e-014 -5.64548e-014
rhumerus -37.4131 -1.67223 -86.2124
rradius 35.223
rwrist 29.6802
rhand -32.1008 -17.5871
rfingers 7.12502
rthumb -5.3461 -47.4997
lclavicle 3.26007e-014 -5.64548e-014
lhumerus -31.4433 -33.1031 101.706
lradius 28.6631
lwrist -7.21217
lhand -37.0615 7.69688
lfingers 7.12502
lthumb -10.1339 37.4328
rfemur -7.47818 -16.7221 28.5206
rtibia 47.2288
rfoot -28.8929 -4.69496
rtoes -3.01322
lfemur -1.53495 4.36781 6.01757
ltibia 72.8581
lfoot -12.9392 -18.7798
ltoes -11.7002
114
root 2.86022 16.0717 -14.4693 -10.8567 8.49913 -8.34834
lowerback 4.90259 -2.37197 3.55586
upperback 5.34463 -3.16493 5.82858
thorax 2.93466 -1.57942 4.1244
lowerneck -14.8143 -5.07981 -8.02312
upperneck 23.596 -7.2642 8.29925
head 10.6249 -3.10204 3.32368
rclavicle 1.81391e-014 -7.23576e-014
rhumerus -35.7216 -0.273063 -86.7939
rradius 35.744
rwrist 29.2108
rhand -32.3138 -17.5828
rfingers 7.12502
rthumb -5.55169 -47.4901
lclavicle 1.81391e-014 -7.23576e-014
lhumerus -31.7535 -33.3024 101.444
lradius 28.5708
lwrist -7.67149
lhand -37.2105 7.62666
lfingers 7.12502
lthumb -10.2777 37.3556
rfemur -6.48561 -16.7555 28.5176
rtibia 47.2379
rfoot -29.3716 -4.7886
rtoes -3.54276
lfemur -2.99913 4.57583 6.14832
ltibia 73.7974
lfoot -14.2412 -18.1169
ltoes -12.0495
115
root 2.83798 16.0544 -14.3175 -11.1367 8.41935 -8.30913
lowerback 4.71265 -2.10957 3.63807
upperback 5.74465 -2.84784 5.54372
thorax 3.42457 -1.40796 3.76081
lowerneck -14.3303 -5.38622 -7.95539
upperneck 22.4565 -7.78247 8.77025
head 10.1863 -3.3049 3.3965
rclavicle 1.63003e-014 3.89618e-014
rhumerus -34.1016 1.01762 -87.5562
rradius 36.419
rwrist 28.0514
rhand -32.4246 -17.5259
rfingers 7.12502
rthumb -5.65868 -47.4303
lclavicle 1.63003e-014 3.89618e-014
lhumerus -32.0774 -33.5944 101.028
lradius 28.4189
lwrist -7.84973
lhand -37.5316 8.10255
lfingers 7.12502
lthumb -10.5875 37.8159
rfemur -5.56621 -16.9109 28.3687
rtibia 47.2565
rfoot -29.7804 -4.57014
rtoes -3.45374
lfemur -4.39803 4.73172 6.07979
ltibia 74.3978
lfoot -15.4936 -17.3585
ltoes -12.7118
116
root 2.81691 16.0349 -14.1726 -11.4354 8.37657 -8.11202
lowerback 4.8073 -1.9474 3.58547
upperback 6.03991 -2.63776 5.2681
thorax 3.65986 -1.29637 3.49873
lowerneck -14.2748 -5.59377 -8.16809
upperneck 21.9814 -8.11839 9.28529
head 10.0724 -3.42833 3.56219
rclavicle -1.44119e-015 -3.18055e-015
rhumerus -32.4278 1.89666 -87.8955
rradius 36.5317
rwrist 28.7865
rhand -32.5635 -17.3003
rfingers 7.12502
rthumb -5.79278 -47.2012
lclavicle -1.44119e-015 -3.18055e-015
lhumerus -32.3512 -32.8729 100.514
lradius 28.1213
lwrist -8.75475
lhand -37.7983 7.56029
lfingers 7.12502
lthumb -10.8448 37.2603
rfemur -4.63634 -17.2263 28.0012
rtibia 47.2722
rfoot -30.1356 -4.4014
rtoes -4.0416
lfemur -5.65537 4.76773 5.70163
ltibia 74.741
lfoot -16.6019 -16.0815
ltoes -12.9985
117
root 2.79398 16.0145 -14.0308 -11.7613 8.19764 -8.0072
lowerback 4.92161 -1.71854 3.55332
upperback 6.35142 -2.33815 5.05207
thorax 3.90296 -1.14015 3.28778
lowerneck -14.0903 -5.78548 -8.28897
upperneck 21.3062 -8.41367 9.68924
head 9.85285 -3.54552 3.67713
rclavicle 1.03865e-014 6.83819e-014
rhumerus -30.9992 3.57391 -88.4957
rradius 37.0001
rwrist 28.2656
rhand -32.9599 -18.0685
rfingers 7.12502
rthumb -6.17552 -47.9585
lclavicle 1.03865e-014 6.83819e-014
lhumerus -32.4135 -31.5995 99.7916
lradius 27.6411
lwrist -10.0628
lhand -38.4128 7.80112
lfingers 7.12502
lthumb -11.4374 37.4692
rfemur -3.64185 -17.3892 27.7707
rtibia 47.1974
rfoot -30.5517 -4.27352
rtoes -4.17506
lfemur -6.83013 4.95326 5.4481
ltibia 74.8406
lfoot -17.5239 -14.6989
ltoes -13.2072
118
root 2.76852 15.9933 -13.8928 -12.0102 8.08464 -7.92965
lowerback 4.97839 -1.44966 3.3984
upperback 6.53144 -1.98308 4.85028
thorax 4.04442 -0.962314 3.15893
lowerneck -13.7407 -5.9818 -8.3272
upperneck 20.8093 -8.76055 10.1013
head 9.67056 -3.68378 3.77991
rclavicle 4.83544e-014 -3.33958e-014
rhumerus -29.6737 4.22485 -88.8001
rradius 37.2231
rwrist 28.4389
rhand -32.8391 -18.1505
rfingers 7.12502
rthumb -6.05887 -48.0439
lclavicle 4.83544e-014 -3.33958e-014
lhumerus -32.7839 -30.3262 99.1283
lradius 27.1864
lwrist -11.4291
lhand -38.7081 7.76895
lfingers 7.12502
lthumb -11.7221 37.421
rfemur -2.68448 -17.4805 27.6353
rtibia 47.0028
rfoot -30.9029 -4.35598
rtoes -4.72485
lfemur -8.07436 5.20871 5.19649
ltibia 74.7315
lfoot -18.3054 -13.3271
ltoes -13.2146
119
root 2.74279 15.9829 -13.7573 -12.2866 7.86855 -7.9374
lowerback 5.25226 -1.17711 3.3197
upperback 6.68637 -1.60746 4.75224
thorax 4.04015 -0.77451 3.10048
lowerneck -13.6207 -6.20344 -8.59617
upperneck 20.4629 -9.07854 10.4883
head 9.59432 -3.82145 3.91412
rclavicle -1.51573e-014 4.53229e-014
rhumerus -28.3812 5.19438 -88.9405
rradius 37.4993
rwrist 28.263
rhand -32.929 -18.2878
rfingers 7.12502
rthumb -6.14571 -48.1787
lclavicle -1.51573e-014 4.53229e-014
lhumerus -32.9227 -28.6862 98.5118
lradius 26.6121
lwrist -12.6792
lhand -38.9988 8.07085
lfingers 7.12502
lthumb -12.0025 37.7067
rfemur -1.62559 -17.4021 27.631
rtibia 46.6423
rfoot -31.2391 -4.3689
rtoes -4.89829
lfemur -9.17873 5.58617 5.02403
ltibia 74.3621
lfoot -19.1787 -11.8704
ltoes -12.716
120
root 2.72189 15.9824 -13.6172 -12.4939 7.65109 -7.95185
lowerback 4.6475 -0.979747 4.59045
upperback 7.12916 -1.34985 3.52321
thorax 4.78193 -0.540237 1.09778
lowerneck -13.4152 -6.26035 -7.23313
upperneck 19.9019 -9.5715 11.084
head 9.37938 -3.90435 3.82273
rclavicle -1.51573e-014 4.53229e-014
rhumerus -28.3812 5.19438 -88.9405
rradius 37.4993
rwrist 28.263
rhand -32.929 -18.2878
rfingers 7.12502
rthumb -6.14571 -48.1787
lclavicle -1.25483e-014 -3.95581e-014
lhumerus -33.3091 -28.8767 96.5531
lradius 26.6312
lwrist -11.9444
lhand -39.1754 8.57251
lfingers 7.12502
lthumb -12.1728 38.1983
rfemur -0.539218 -17.1293 27.6877
rtibia 46.1144
rfoot -31.4217 -4.54751
rtoes -5.34895
lfemur -10.1976 5.96432 4.79618
ltibia 73.7899
lfoot -19.8748 -10.4533
ltoes -13.0073
121
root 2.70539 15.9893 -13.4783 -12.5949 7.21743 -7.96461
lowerback 5.43949 -0.515637 3.50298
upperback 6.78273 -0.699574 4.33046
thorax 3.9977 -0.299057 2.54277
lowerneck -13.0055 -6.61757 -8.51361
upperneck 19.902 -9.76837 10.9148
head 9.37927 -4.12286 3.95889
rclavicle -2.39536e-014 -3.53837e-014
rhumerus -26.4595 6.65035 -89.5956
rradius 38.1511
rwrist 27.8335
rhand -33.061 -17.8438
rfingers 7.12502
rthumb -6.27315 -47.731
lclavicle -2.39536e-014 -3.53837e-014
lhumerus -33.806 -25.9453 97.409
lradius 25.8168
lwrist -13.076
lhand -39.8113 8.90338
lfingers 7.12502
lthumb -12.7858 38.4919
rfemur 0.488062 -16.8454 27.733
rtibia 45.4404
rfoot -31.4067 -4.40929
rtoes -5.89015
lfemur -11.1659 6.45385 4.57353
ltibia 72.9979
lfoot -20.5247 -9.33608
ltoes -12.0933
122
root 2.69263 16.0071 -13.3413 -12.7693 7.00038 -7.8664
lowerback 5.67165 -0.241797 3.58248
upperback 6.83521 -0.31198 4.076
thorax 3.91198 -0.0945297 2.22598
lowerneck -13.0067 -6.81004 -8.52103
upperneck 19.8699 -10.0752 11.0873
head 9.41343 -4.24926 3.97683
rclavicle -1.09083e-014 -1.43125e-014
rhumerus -25.4569 7.21962 -89.8416
rradius 38.4174
rwrist 27.8013
rhand -32.972 -17.8702
rfingers 7.12502
rthumb -6.18715 -47.7598
lclavicle -1.09083e-014 -1.43125e-014
lhumerus -34.1089 -24.3593 96.7896
lradius 25.4666
lwrist -12.842
lhand -39.9901 9.60454
lfingers 7.12502
lthumb -12.9582 39.1822
rfemur 1.68006 -16.865 27.5029
rtibia 44.5837
rfoot -31.2876 -4.23153
rtoes -6.68796
lfemur -12.0524 6.79987 4.08715
ltibia 71.9569
lfoot -21.2105 -8.42508
ltoes -11.5738
123
root 2.67799 16.0329 -13.2041 -12.7643 6.77788 -7.71962
lowerback 5.83992 0.0725264 3.59461
upperback 6.74349 0.131024 3.78839
thorax 3.71389 0.133836 1.90736
lowerneck -12.8858 -7.07529 -8.7358
upperneck 19.9042 -10.5059 11.4745
head 9.48742 -4.43034 4.09084
rclavicle -1.27719e-014 3.83654e-014
rhumerus -24.6077 7.35333 -89.9741
rradius 38.1914
rwrist 29.2545
rhand -33.1366 -17.2684
rfingers 7.12502
rthumb -6.3461 -47.1533
lclavicle -1.27719e-014 3.83654e-014
lhumerus -34.6993 -23.3029 96.4049
lradius 25.1251
lwrist -12.1343
lhand -40.506 9.57775
lfingers 7.12502
lthumb -13.4555 39.1231
rfemur 2.73856 -16.8513 27.2814
rtibia 43.5908
rfoot -31.0843 -3.9774
rtoes -7.08167
lfemur -12.9981 7.21777 3.50716
ltibia 70.7406
lfoot -21.8411 -7.72649
ltoes -11.6047
124
root 2.66823 16.0756 -13.0631 -12.8162 6.6172 -7.5496
lowerback 6.02617 0.369889 3.70124
upperback 6.67871 0.554953 3.41339
thorax 3.54193 0.358661 1.44428
lowerneck -12.8337 -7.31494 -8.58203
upperneck 19.956 -10.9142 11.5836
head 9.54154 -4.59799 4.04675
rclavicle -3.18055e-014 -2.36554e-014
rhumerus -23.9047 8.04771 -90.4794
rradius 38.6758
rwrist 28.3017
rhand -32.9473 -17.4798
rfingers 7.12502
rthumb -6.16335 -47.3702
lclavicle -3.18055e-014 -2.36554e-014
lhumerus -35.1152 -21.8957 95.7365
lradius 24.6457
lwrist -12.4503
lhand -40.6645 10.3611
lfingers 7.12502
lthumb -13.6083 39.8963
rfemur 3.96993 -16.935 26.9249
rtibia 42.3683
rfoot -30.7943 -3.58337
rtoes -7.59387
lfemur -13.7986 7.27127 2.77509
ltibia 69.262
lfoot -22.2616 -7.16649
ltoes -11.2908
125
root 2.65969 16.1213 -12.9263 -12.815 6.50301 -7.35427
lowerback 6.26142 0.690258 3.72129
upperback 6.52189 1.01131 3.10254
thorax 3.25156 0.592056 1.0909
lowerneck -12.6579 -7.58477 -8.74293
upperneck 20.0276 -11.3478 11.8645
head 9.61282 -4.78795 4.11505
rclavicle -4.805e-015 1.37658e-014
rhumerus -23.1832 7.99528 -90.6065
rradius 38.477
rwrist 29.4763
rhand -32.8829 -16.8813
rfingers 7.12502
rthumb -6.10118 -46.7735
lclavicle -4.805e-015 1.37658e-014
lhumerus -35.5699 -20.3899 94.9576
lradius 24.1577
lwrist -13.011
lhand -40.3267 10.1981
lfingers 7.12502
lthumb -13.2827 39.7548
rfemur 5.21288 -16.9659 26.5498
rtibia 40.9886
rfoot -30.5304 -3.08901
rtoes -7.26041
lfemur -14.5754 7.31141 1.98991
ltibia 67.5962
lfoot -22.6985 -6.92024
ltoes -11.4813
